<svg width="401" height="87" fill="none" xmlns="http://www.w3.org/2000/svg"><path d="M132.951 50.662v-.377l.792-.302c.804-.326 1.206-.967 1.206-1.922V28.39c0-1.005-.402-1.645-1.206-1.922l-.792-.301v-.377h9.95c2.663 0 4.949.502 6.859 1.507 1.934.98 3.416 2.4 4.447 4.259 1.055 1.834 1.582 4.045 1.582 6.633 0 2.638-.565 4.886-1.696 6.745-1.13 1.86-2.713 3.28-4.748 4.259-2.01.98-4.384 1.47-7.123 1.47h-9.271Zm7.651-.754h1.62c1.809 0 3.266-.352 4.372-1.055 1.105-.729 1.909-1.935 2.412-3.618.527-1.709.791-4.045.791-7.01 0-2.964-.264-5.288-.791-6.972-.503-1.708-1.294-2.914-2.374-3.618-1.081-.728-2.5-1.093-4.259-1.093h-1.771v23.366Zm13.756.754v-.377l.943-.34c.502-.2.892-.439 1.168-.715.276-.302.502-.716.678-1.244l7.764-22.273h3.203l7.65 22.424c.201.553.427.98.679 1.281.251.276.64.515 1.168.716l.452.15v.378h-9.572v-.377l.565-.189c.528-.2.842-.477.942-.829.126-.377.113-.816-.037-1.319l-1.772-5.426h-8.366l-1.809 5.313c-.176.553-.239.993-.188 1.32.075.326.376.59.904.79l.829.34v.377h-5.201Zm5.729-8.894h7.876l-3.806-11.72-4.07 11.72Zm24.915 9.007-8.065-22.461c-.176-.503-.415-.892-.716-1.169-.277-.301-.666-.527-1.169-.678l-.904-.301v-.377h10.854v.377l-1.169.339c-.578.15-.904.414-.98.791-.05.377.013.842.189 1.395l5.577 16.544 5.616-16.582c.201-.578.289-1.055.264-1.432 0-.377-.289-.64-.867-.792l-.98-.263v-.377h5.276v.377l-1.018.301c-.477.126-.816.352-1.017.678-.201.302-.389.704-.565 1.206l-7.538 22.424h-2.788Zm13.937-.113v-.377l.754-.302c.503-.175.829-.414.98-.716.176-.301.264-.703.264-1.206V28.39c0-.502-.076-.904-.226-1.206-.151-.301-.49-.54-1.018-.716l-.754-.301v-.377h9.686v.377l-.754.301c-.502.176-.842.415-1.018.716-.15.302-.226.704-.226 1.206v19.672c0 .503.076.905.226 1.206.176.277.516.515 1.018.716l.754.302v.377h-9.686Zm11.336 0v-.377l.791-.302c.804-.326 1.206-.967 1.206-1.922V28.39c0-1.005-.402-1.645-1.206-1.922l-.791-.301v-.377h9.949c2.663 0 4.949.502 6.859 1.507 1.934.98 3.417 2.4 4.447 4.259 1.055 1.834 1.583 4.045 1.583 6.633 0 2.638-.566 4.886-1.696 6.745-1.131 1.86-2.714 3.28-4.749 4.259-2.01.98-4.384 1.47-7.122 1.47h-9.271Zm7.65-.754h1.621c1.808 0 3.266-.352 4.371-1.055 1.106-.729 1.91-1.935 2.412-3.618.528-1.709.791-4.045.791-7.01 0-2.964-.263-5.288-.791-6.972-.502-1.708-1.294-2.914-2.374-3.618-1.08-.728-2.5-1.093-4.259-1.093h-1.771v23.366Zm32.87 1.319c-1.658 0-3.077-.301-4.258-.904-1.156-.629-2.035-1.445-2.638-2.45-.603-1.005-.905-2.123-.905-3.354 0-3.04 1.96-5.377 5.879-7.01a28.628 28.628 0 0 1-1.884-2.902c-.527-.98-.791-2.123-.791-3.43 0-1.783.628-3.202 1.884-4.258 1.281-1.08 2.952-1.62 5.012-1.62 2.01 0 3.568.452 4.673 1.357 1.106.879 1.659 2.047 1.659 3.504 0 1.232-.503 2.312-1.508 3.241-1.005.93-2.437 1.784-4.296 2.563.477.528.967 1.093 1.47 1.696.527.578 1.068 1.156 1.62 1.734.679.753 1.332 1.47 1.96 2.148a82.721 82.721 0 0 1 1.96 2.11c.603-.829 1.168-1.834 1.696-3.015.527-1.18.942-2.424 1.243-3.73.201-.955-.163-1.571-1.093-1.847l-.264-.114v-.376h4.259v.377l-.339.113c-.829.276-1.369.854-1.621 1.733a27.681 27.681 0 0 1-1.394 3.995 19.55 19.55 0 0 1-1.922 3.43l4.032 4.258c.327.352.654.64.98.867.327.226.691.452 1.093.678l.528.264v.377h-7.613l-2.525-2.714a15.902 15.902 0 0 1-1.62 1.545c-.603.503-1.332.917-2.186 1.244-.854.327-1.885.49-3.091.49Zm2.375-15.753c.98-.88 1.683-1.759 2.11-2.638.452-.904.679-1.897.679-2.977 0-.98-.252-1.771-.754-2.374-.503-.628-1.194-.942-2.073-.942-.829 0-1.52.301-2.073.904-.552.603-.829 1.37-.829 2.299 0 .578.101 1.18.302 1.809.226.628.615 1.344 1.168 2.148.151.2.352.44.603.716.251.276.54.628.867 1.055Zm-.189 13.228c.88 0 1.671-.126 2.375-.377.703-.276 1.306-.615 1.808-1.017a689.155 689.155 0 0 0-1.884-2.11c-.653-.755-1.269-1.47-1.846-2.149-.704-.829-1.395-1.658-2.073-2.487-.653-.83-1.307-1.633-1.96-2.412a5.44 5.44 0 0 0-1.432 2.11 7.143 7.143 0 0 0-.452 2.525c0 1.709.502 3.128 1.507 4.259 1.03 1.105 2.349 1.658 3.957 1.658Zm37.102 2.638c-1.533 0-3.015-.276-4.447-.829a11.63 11.63 0 0 1-3.807-2.45c-1.105-1.105-1.984-2.474-2.638-4.107-.653-1.633-.98-3.543-.98-5.729 0-2.16.327-4.057.98-5.69.654-1.633 1.545-2.99 2.676-4.07 1.131-1.106 2.399-1.935 3.806-2.488a11.683 11.683 0 0 1 4.41-.867c1.532 0 3.002.277 4.409.83a10.425 10.425 0 0 1 3.806 2.45c1.131 1.08 2.023 2.449 2.676 4.107.653 1.633.98 3.542.98 5.728 0 2.136-.327 4.033-.98 5.69-.653 1.634-1.545 3.003-2.676 4.109a11.608 11.608 0 0 1-3.806 2.487c-1.407.553-2.877.83-4.409.83Zm0-.791c1.381 0 2.499-.365 3.354-1.093.854-.754 1.469-2.023 1.846-3.806.402-1.81.603-4.284.603-7.425 0-3.165-.201-5.64-.603-7.424-.377-1.809-.992-3.078-1.846-3.806-.855-.754-1.973-1.13-3.354-1.13-1.357 0-2.463.376-3.317 1.13-.854.728-1.482 1.997-1.884 3.806-.377 1.784-.565 4.259-.565 7.424 0 3.14.188 5.615.565 7.425.402 1.783 1.03 3.052 1.884 3.806.854.728 1.96 1.093 3.317 1.093Zm12.825.113v-.377l.791-.302c.528-.2.855-.44.98-.716.151-.301.226-.703.226-1.206V28.39c0-.502-.075-.904-.226-1.206-.15-.301-.477-.54-.98-.716l-.791-.301v-.377h9.61v.377l-.678.301c-.478.176-.804.427-.98.754-.176.301-.264.703-.264 1.206v21.481h5.804c.929 0 1.608-.226 2.035-.678.452-.453.879-1.106 1.281-1.96l1.47-3.166h.377l-.339 6.558h-18.316Zm20.021 0v-.377l.754-.302c.502-.175.829-.414.98-.716.175-.301.263-.703.263-1.206V28.39c0-.502-.075-.904-.226-1.206-.151-.301-.49-.54-1.017-.716l-.754-.301v-.377h9.685v.377l-.753.301c-.503.176-.842.415-1.018.716-.151.302-.226.704-.226 1.206v19.672c0 .503.075.905.226 1.206.176.277.515.515 1.018.716l.753.302v.377h-9.685Zm21.209.113-8.065-22.461c-.176-.503-.414-.892-.716-1.169-.276-.301-.666-.527-1.168-.678l-.905-.301v-.377h10.854v.377l-1.168.339c-.578.15-.905.414-.98.791-.05.377.013.842.188 1.395l5.578 16.544 5.615-16.582c.201-.578.289-1.055.264-1.432 0-.377-.289-.64-.867-.792l-.98-.263v-.377h5.277v.377l-1.018.301c-.477.126-.817.352-1.018.678-.201.302-.389.704-.565 1.206l-7.537 22.424h-2.789Zm8.883-.113v-.377l.943-.34c.502-.2.892-.439 1.168-.715.276-.302.502-.716.678-1.244l7.764-22.273h3.203l7.65 22.424c.201.553.427.98.679 1.281.251.276.64.515 1.168.716l.452.15v.378h-9.572v-.377l.565-.189c.528-.2.842-.477.942-.829.126-.377.113-.816-.037-1.319l-1.772-5.426h-8.366l-1.809 5.313c-.176.553-.239.993-.188 1.32.075.326.377.59.904.79l.829.34v.377h-5.201Zm5.729-8.894h7.876l-3.806-11.72-4.07 11.72Zm19.163 8.894v-.377l.791-.264c.503-.176.829-.402.98-.678.151-.302.226-.716.226-1.244V28.39c0-.502-.075-.892-.226-1.168-.126-.302-.427-.54-.904-.716l-.867-.34v-.376h10.778c2.965 0 5.238.565 6.821 1.696 1.583 1.105 2.375 2.65 2.375 4.635 0 1.105-.415 2.211-1.244 3.317-.829 1.105-2.136 1.96-3.92 2.562l5.239 10.402c.226.427.477.778.754 1.055.301.251.691.477 1.168.678l.49.189v.339h-6.746L388.05 38.79h-2.562v9.308c0 .477.075.867.226 1.168.151.302.465.528.942.679l.904.339v.377h-9.647Zm7.575-12.625h1.809c1.809 0 3.115-.477 3.919-1.432.804-.98 1.206-2.425 1.206-4.334 0-1.935-.377-3.367-1.131-4.296-.753-.955-2.022-1.433-3.806-1.433h-1.997v11.495Z" fill="#373F47"/><path d="M.782 67.785v.219H16.14c4.497 0 8.408-.805 11.726-2.422 3.36-1.618 5.977-3.964 7.846-7.038 1.87-3.077 2.801-6.79 2.801-11.13 0-4.254-.868-7.904-2.613-10.938-1.703-3.074-4.156-5.422-7.352-7.04-3.156-1.661-6.925-2.487-11.3-2.487H.781v.984l.14.054 1.293.492.006.003c.616.211 1.065.557 1.364 1.032.3.479.459 1.107.459 1.9v32.125c0 .75-.158 1.358-.46 1.838-.3.478-.752.845-1.372 1.098H2.21l-1.288.491-.14.053v.766Zm26.227-8.926-.001.002c-.81 2.715-2.099 4.634-3.848 5.787-1.76 1.12-4.094 1.688-7.02 1.688H13.71v-37.72h2.675c2.843 0 5.114.59 6.832 1.748l.003.002c1.706 1.111 2.975 3.028 3.787 5.787v.003c.853 2.718 1.283 6.488 1.283 11.32s-.43 8.623-1.282 11.383ZM80.138 67.742a20.217 20.217 0 0 0 7.341 1.37c2.53 0 4.957-.457 7.28-1.37h.002a19.177 19.177 0 0 0 6.287-4.109c1.871-1.828 3.343-4.09 4.42-6.783 1.079-2.739 1.615-5.864 1.615-9.374 0-3.59-.536-6.736-1.615-9.434-1.076-2.733-2.549-4.996-4.42-6.784-1.826-1.826-3.923-3.176-6.29-4.049a19.736 19.736 0 0 0-7.279-1.368c-2.49 0-4.917.478-7.28 1.431-2.326.914-4.422 2.284-6.287 4.108-1.872 1.788-3.344 4.03-4.421 6.722-1.08 2.698-1.616 5.824-1.616 9.374 0 3.591.537 6.738 1.616 9.436 1.076 2.69 2.528 4.953 4.356 6.781l.004.004c1.866 1.783 3.962 3.132 6.287 4.045Zm15.621-8.19v.003c-.611 2.892-1.602 4.91-2.945 6.096-1.347 1.148-3.118 1.731-5.335 1.731-2.174 0-3.925-.582-5.272-1.73-1.345-1.188-2.355-3.207-3.007-6.098-.61-2.933-.918-6.956-.918-12.078 0-5.163.307-9.186.918-12.077.652-2.935 1.663-4.952 3.005-6.096l.003-.003c1.348-1.189 3.098-1.791 5.271-1.791 2.216 0 3.986.603 5.333 1.791l.003.003c1.341 1.144 2.332 3.16 2.944 6.094v.004c.652 2.89.98 6.912.98 12.075 0 5.122-.328 9.145-.98 12.077Z" fill="#373F47" stroke="#373F47" strokeWidth=".436"/><path stroke="#373F47" strokeWidth="1.309" d="M53.987 9v76.953"/><path d="m185.776 82 4.644-12.6h1.602l4.626 12.6h-1.602l-1.152-3.24h-5.364L187.36 82h-1.584Zm3.204-4.464h4.464l-2.232-6.228-2.232 6.228ZM207.521 82V69.4h4.428c.888 0 1.62.144 2.196.432.588.276 1.026.66 1.314 1.152.288.48.432 1.02.432 1.62 0 .816-.222 1.458-.666 1.926a3.398 3.398 0 0 1-1.566.972c.468.084.894.27 1.278.558.384.288.684.648.9 1.08a3 3 0 0 1 .342 1.422c0 .636-.156 1.218-.468 1.746-.312.516-.774.93-1.386 1.242-.612.3-1.356.45-2.232.45h-4.572Zm1.512-7.092h2.808c.804 0 1.422-.186 1.854-.558.432-.384.648-.912.648-1.584 0-.636-.216-1.146-.648-1.53-.42-.384-1.056-.576-1.908-.576h-2.754v4.248Zm0 5.832h2.898c.864 0 1.53-.198 1.998-.594.468-.408.702-.972.702-1.692 0-.708-.246-1.272-.738-1.692-.492-.432-1.158-.648-1.998-.648h-2.862v4.626Zm24.041 1.476c-1.236 0-2.322-.27-3.258-.81a5.841 5.841 0 0 1-2.178-2.304c-.516-.984-.774-2.118-.774-3.402 0-1.284.258-2.412.774-3.384a5.841 5.841 0 0 1 2.178-2.304c.936-.552 2.022-.828 3.258-.828 1.248 0 2.334.276 3.258.828a5.679 5.679 0 0 1 2.178 2.304c.516.972.774 2.1.774 3.384 0 1.284-.258 2.418-.774 3.402a5.679 5.679 0 0 1-2.178 2.304c-.924.54-2.01.81-3.258.81Zm0-1.332c.924 0 1.734-.204 2.43-.612a4.208 4.208 0 0 0 1.638-1.782c.396-.78.594-1.71.594-2.79s-.198-2.004-.594-2.772c-.384-.768-.93-1.356-1.638-1.764-.696-.42-1.506-.63-2.43-.63-.924 0-1.74.21-2.448.63-.696.408-1.242.996-1.638 1.764-.384.768-.576 1.692-.576 2.772 0 1.08.192 2.01.576 2.79.396.768.942 1.362 1.638 1.782.708.408 1.524.612 2.448.612Zm22.809 1.332c-1.176 0-2.208-.27-3.096-.81-.888-.552-1.578-1.314-2.07-2.286-.492-.984-.738-2.118-.738-3.402 0-1.284.246-2.418.738-3.402a5.632 5.632 0 0 1 2.124-2.304c.924-.552 2.01-.828 3.258-.828 1.416 0 2.592.342 3.528 1.026.948.684 1.56 1.626 1.836 2.826h-1.746a2.888 2.888 0 0 0-1.206-1.8c-.624-.444-1.428-.666-2.412-.666-.924 0-1.728.21-2.412.63-.684.408-1.218.996-1.602 1.764-.372.768-.558 1.686-.558 2.754s.186 1.986.558 2.754c.372.768.888 1.362 1.548 1.782.66.408 1.428.612 2.304.612 1.344 0 2.358-.39 3.042-1.17.684-.792 1.074-1.872 1.17-3.24h-3.636v-1.188h5.184V82h-1.386l-.126-2.07c-.456.732-1.014 1.296-1.674 1.692-.66.396-1.536.594-2.628.594ZM272.296 82l4.644-12.6h1.602l4.626 12.6h-1.602l-1.152-3.24h-5.364L273.88 82h-1.584Zm3.204-4.464h4.464l-2.232-6.228-2.232 6.228ZM294.041 82V69.4h3.87c2.22 0 3.852.564 4.896 1.692 1.056 1.128 1.584 2.676 1.584 4.644 0 1.932-.528 3.462-1.584 4.59-1.044 1.116-2.676 1.674-4.896 1.674h-3.87Zm1.512-1.26h2.322c1.224 0 2.196-.198 2.916-.594.732-.408 1.254-.984 1.566-1.728.312-.756.468-1.65.468-2.682 0-1.056-.156-1.962-.468-2.718a3.466 3.466 0 0 0-1.566-1.746c-.72-.408-1.692-.612-2.916-.612h-2.322v10.08Zm25.745 1.476c-1.236 0-2.322-.27-3.258-.81a5.841 5.841 0 0 1-2.178-2.304c-.516-.984-.774-2.118-.774-3.402 0-1.284.258-2.412.774-3.384a5.841 5.841 0 0 1 2.178-2.304c.936-.552 2.022-.828 3.258-.828 1.248 0 2.334.276 3.258.828a5.679 5.679 0 0 1 2.178 2.304c.516.972.774 2.1.774 3.384 0 1.284-.258 2.418-.774 3.402a5.679 5.679 0 0 1-2.178 2.304c-.924.54-2.01.81-3.258.81Zm0-1.332c.924 0 1.734-.204 2.43-.612a4.208 4.208 0 0 0 1.638-1.782c.396-.78.594-1.71.594-2.79s-.198-2.004-.594-2.772c-.384-.768-.93-1.356-1.638-1.764-.696-.42-1.506-.63-2.43-.63-.924 0-1.74.21-2.448.63-.696.408-1.242.996-1.638 1.764-.384.768-.576 1.692-.576 2.772 0 1.08.192 2.01.576 2.79.396.768.942 1.362 1.638 1.782.708.408 1.524.612 2.448.612Zm21.405 1.332c-.924 0-1.728-.168-2.412-.504-.684-.336-1.212-.804-1.584-1.404-.372-.6-.558-1.296-.558-2.088h1.584c0 .492.114.948.342 1.368.228.408.558.738.99.99.444.24.99.36 1.638.36.852 0 1.512-.204 1.98-.612.468-.408.702-.918.702-1.53 0-.504-.108-.906-.324-1.206a2.37 2.37 0 0 0-.882-.756c-.36-.192-.78-.36-1.26-.504-.468-.144-.96-.306-1.476-.486-.972-.336-1.692-.75-2.16-1.242-.468-.504-.702-1.158-.702-1.962-.012-.672.144-1.266.468-1.782a3.23 3.23 0 0 1 1.368-1.224c.6-.3 1.308-.45 2.124-.45.804 0 1.5.15 2.088.45.6.3 1.062.714 1.386 1.242.336.528.51 1.128.522 1.8h-1.584c0-.348-.09-.69-.27-1.026a2.077 2.077 0 0 0-.828-.846c-.36-.216-.816-.324-1.368-.324-.684-.012-1.248.162-1.692.522-.432.36-.648.858-.648 1.494 0 .54.15.954.45 1.242.312.288.744.528 1.296.72.552.18 1.188.39 1.908.63.6.216 1.14.468 1.62.756.48.288.852.66 1.116 1.116.276.456.414 1.038.414 1.746 0 .6-.156 1.17-.468 1.71-.312.528-.786.96-1.422 1.296-.624.336-1.41.504-2.358.504Z" fill="#373F47"/></svg>