<svg width="518" height="512" viewBox="0 0 518 512" fill="none" xmlns="http://www.w3.org/2000/svg">
<path d="M1.94454 354.221V355.277H3H76.2194C97.9716 355.277 116.887 351.385 132.933 343.563C149.181 335.74 161.839 324.392 170.878 309.528C179.927 294.648 184.425 276.689 184.425 255.702C184.425 235.124 180.23 217.475 171.788 202.799C163.55 187.932 151.689 176.577 136.232 168.747C120.97 160.716 102.739 156.723 81.577 156.723H3H1.94454V157.779V160.755V161.483L2.62426 161.742L8.8747 164.123L8.89092 164.129L8.90733 164.134C11.8839 165.158 14.0565 166.829 15.4998 169.129C16.9523 171.444 17.7195 174.482 17.7195 178.316V333.684C17.7195 337.307 16.9573 340.25 15.4998 342.573C14.0485 344.886 11.8591 346.663 8.86326 347.882L2.62426 350.258L1.94454 350.517V351.245V354.221ZM128.786 311.05L128.783 311.059C124.863 324.191 118.633 333.469 110.172 339.049C101.664 344.46 90.3751 347.213 76.2194 347.213H64.4764V164.787H77.41C91.1614 164.787 102.146 167.636 110.453 173.238L110.46 173.243L110.467 173.248C118.721 178.622 124.858 187.891 128.782 201.234L128.785 201.243L128.787 201.252C132.908 214.399 134.99 232.63 134.99 256C134.99 279.368 132.908 297.702 128.786 311.05Z" fill="#373F47" stroke="#373F47" stroke-width="2.11092"/>
<path d="M385.735 354.013L385.741 354.015C397.173 358.428 409.009 360.634 421.243 360.634C433.477 360.634 445.216 358.427 456.453 354.013L456.462 354.01C467.9 349.394 478.037 342.77 486.866 334.141L486.866 334.141C495.912 325.297 503.033 314.354 508.241 301.336L508.243 301.331C513.459 288.089 516.055 272.973 516.055 256C516.055 238.635 513.46 223.416 508.241 210.368C503.036 197.155 495.915 186.211 486.866 177.561C478.035 168.732 467.891 162.203 456.442 157.983C445.209 153.571 433.473 151.366 421.243 151.366C409.2 151.366 397.46 153.675 386.029 158.287C374.783 162.705 364.647 169.331 355.624 178.152C346.575 186.801 339.452 197.646 334.245 210.664C329.026 223.712 326.431 238.831 326.431 256C326.431 273.366 329.026 288.585 334.245 301.633C339.451 314.647 346.47 325.587 355.313 334.43L355.322 334.439L355.331 334.447C364.355 343.071 374.492 349.596 385.735 354.013ZM461.287 314.406L461.285 314.417C458.33 328.402 453.539 338.162 447.042 343.899C440.528 349.452 431.962 352.273 421.243 352.273C410.728 352.273 402.259 349.455 395.742 343.899C389.24 338.159 384.352 328.394 381.2 314.411C378.246 300.228 376.759 280.769 376.759 256C376.759 231.03 378.247 211.571 381.2 197.589C384.355 183.395 389.245 173.642 395.736 168.106L395.742 168.101L395.749 168.095C402.267 162.344 410.733 159.43 421.243 159.43C431.957 159.43 440.52 162.347 447.035 168.095L447.041 168.101L447.048 168.106C453.534 173.638 458.327 183.387 461.284 197.58L461.286 197.589L461.288 197.597C464.437 211.574 466.024 231.029 466.024 256C466.024 280.772 464.437 300.229 461.287 314.406Z" fill="#373F47" stroke="#373F47" stroke-width="2.11092"/>
<line x1="266.095" y1="69.9155" x2="266.095" y2="442.085" stroke="#373F47" stroke-width="20"/>
</svg>
