<svg width="28" height="28" fill="none" xmlns="http://www.w3.org/2000/svg"><path d="M14 .01c7.73 0 14 6.27 14 14s-6.27 14-14 14-14-6.27-14-14 6.27-14 14-14Zm-1.126 25.504c.06 0 .122 0 .213.03V18.94c-1.583-.03-3.013-.06-4.322-.152 1.157 3.56 3.318 5.935 4.109 6.726Zm2.252 0c.822-.822 2.952-3.196 4.109-6.726-1.279.091-2.74.152-4.322.152v6.604c.06 0 .122-.03.213-.03Zm10.44-11.505c0-.76-.092-1.521-.214-2.252-.67-.121-1.948-.304-3.743-.487.152.883.243 1.796.243 2.77s-.091 1.887-.213 2.74c1.765-.184 3.074-.366 3.744-.488.09-.76.182-1.522.182-2.283Zm-5.57 0c0-1.034-.122-2.008-.305-2.921-1.4-.091-2.982-.183-4.778-.183v6.209c1.765-.03 3.378-.091 4.809-.213.152-.883.274-1.857.274-2.892ZM12.904 2.505c-.821.822-2.921 3.257-4.108 6.726a60.092 60.092 0 0 1 4.291-.152V2.475c-.06 0-.122.03-.183.03Zm2.009-.03v6.604c1.583.03 3.013.061 4.291.152-1.156-3.47-3.287-5.904-4.078-6.726-.091 0-.152-.03-.213-.03Zm-1.826 14.639v-6.209c-1.765.03-3.378.091-4.778.183a14.886 14.886 0 0 0-.03 5.844c1.4.09 3.012.151 4.808.182ZM6.422 11.27c-1.796.183-3.074.366-3.744.487-.152.73-.243 1.492-.243 2.252 0 .761.091 1.522.213 2.253.67.121 1.948.304 3.743.487a16.226 16.226 0 0 1-.213-2.77c0-.913.092-1.856.244-2.709ZM3.226 9.81a84.21 84.21 0 0 1 3.622-.427c.73-2.617 2.009-4.717 3.074-6.208A11.6 11.6 0 0 0 3.226 9.81Zm14.852-6.635c1.096 1.46 2.344 3.56 3.074 6.178 1.522.122 2.74.304 3.622.426a11.722 11.722 0 0 0-6.696-6.604Zm6.696 15.034c-.852.122-2.07.274-3.591.427a18.84 18.84 0 0 1-3.044 6.178 11.707 11.707 0 0 0 6.635-6.605ZM9.86 24.814a18.656 18.656 0 0 1-3.044-6.148c-1.521-.122-2.739-.304-3.59-.426a11.745 11.745 0 0 0 6.634 6.574Z" fill="#999DA0"/></svg>