<svg width="16" height="16" fill="none" xmlns="http://www.w3.org/2000/svg"><path d="M0 2.486c0-.514.18-.939.54-1.274C.9.878 1.37.71 1.947.71c.566 0 1.024.165 1.374.495.36.34.541.782.541 1.328 0 .494-.175.906-.525 1.235-.36.34-.834.51-1.42.51H1.9c-.567 0-1.025-.17-1.375-.51C.175 3.428 0 3.001 0 2.486ZM.2 16V5.683h3.43V16H.2Zm5.329 0h3.429v-5.76c0-.361.04-.639.123-.835a2.24 2.24 0 0 1 .656-.888c.294-.242.662-.363 1.105-.363 1.153 0 1.73.778 1.73 2.332V16H16v-5.915c0-1.524-.36-2.68-1.081-3.467-.72-.788-1.673-1.182-2.857-1.182-1.328 0-2.363.572-3.104 1.715v.03h-.016l.016-.03V5.683H5.529c.02.33.03 1.354.03 3.074 0 1.72-.01 4.134-.03 7.243Z" fill="#373F47"/></svg>