<svg width="24" height="23" fill="none" xmlns="http://www.w3.org/2000/svg"><path d="M17.528 22.735c-.923 0-1.83-.24-2.63-.698l-.113-.064A35.088 35.088 0 0 1 2.13 9.587l-.59-.982a5.244 5.244 0 0 1 .79-6.413l1.174-1.174a2.53 2.53 0 0 1 3.576 0l2.585 2.586a2.538 2.538 0 0 1 .416 3.028L9.11 8.358a.19.19 0 0 0 .032.229l5.757 5.757a.193.193 0 0 0 .23.03l1.723-.97.001-.002a2.54 2.54 0 0 1 3.029.416l2.586 2.588a2.53 2.53 0 0 1 0 3.575l-1.225 1.225a5.244 5.244 0 0 1-3.714 1.53ZM5.292 2.072a.733.733 0 0 0-.52.215L3.598 3.46a3.452 3.452 0 0 0-.52 4.22l.59.982A33.288 33.288 0 0 0 15.67 20.413l.113.064c1.368.783 3.09.561 4.189-.54l1.226-1.224a.737.737 0 0 0 0-1.04l-2.587-2.588a.739.739 0 0 0-.881-.12l-1.724.97a1.992 1.992 0 0 1-2.377-.325L7.873 9.854a1.989 1.989 0 0 1-.325-2.377l.972-1.725a.739.739 0 0 0-.122-.88L5.812 2.287a.733.733 0 0 0-.52-.215Z" fill="#999DA0"/></svg>