<svg width="65" height="64" fill="none" xmlns="http://www.w3.org/2000/svg"><path d="M33.472 61.69H5.682a1.5 1.5 0 0 1-1.5-1.5V54a1.5 1.5 0 0 1 1.5-1.5h16.63a1.5 1.5 0 0 1 0 3H7.182v3.23h24.79v-3.27h-2.14a1.5 1.5 0 1 1 0-3h3.64a1.5 1.5 0 0 1 1.5 1.5v6.23a1.5 1.5 0 0 1-1.5 1.5Z" fill="#F2F2F2"/><path d="M29.832 55.46a1.5 1.5 0 0 1-1.52-1.46v-4.77h-17.49V54a1.5 1.5 0 1 1-3 0v-6.27a1.5 1.5 0 0 1 1.49-1.5h20.52a1.5 1.5 0 0 1 1.5 1.5V54a1.5 1.5 0 0 1-1.5 1.46Zm-6.74-18.31a1.5 1.5 0 0 1-1.06-2.56l16.21-16.22a1.502 1.502 0 1 1 2.13 2.12l-16.22 16.22a1.53 1.53 0 0 1-1.06.44Zm-10.3-10.3a1.45 1.45 0 0 1-1.06-.44 1.49 1.49 0 0 1 0-2.12l16.22-16.22a1.5 1.5 0 1 1 2.12 2.12l-16.22 16.22a1.472 1.472 0 0 1-1.06.44Z" fill="#F2F2F2"/><path d="M40.513 22.13a1.448 1.448 0 0 1-1.06-.44l-1.21-1.2a1.502 1.502 0 1 1 2.13-2.12l.14.14 2-2-10.58-10.58-2 2 6.1 6.1a1.51 1.51 0 0 1-.486 2.448 1.49 1.49 0 0 1-1.634-.328L26.753 9a1.49 1.49 0 0 1 0-2.12l4.11-4.12a1.56 1.56 0 0 1 2.13 0l12.7 12.7c.279.282.437.663.44 1.06a1.5 1.5 0 0 1-.44 1.06l-4.12 4.12a1.482 1.482 0 0 1-1.06.43Zm-20.34 20.34a1.49 1.49 0 0 1-1.06-.47l-12.7-12.67a1.49 1.49 0 0 1 0-2.12l4.12-4.12a1.49 1.49 0 0 1 2.12 0l1.2 1.2a1.5 1.5 0 1 1-2.12 2.12l-.14-.14-2 2 10.58 10.58 2-2-5.39-5.38a1.51 1.51 0 0 1 .485-2.448 1.49 1.49 0 0 1 1.634.328l6.41 6.44a1.5 1.5 0 0 1 0 2.12L21.233 42a1.51 1.51 0 0 1-1.06.47Zm36.04 14.22a4.202 4.202 0 0 1-3-1.24l-25-24.92a1.472 1.472 0 0 1-.45-1.06 1.5 1.5 0 0 1 .44-1.06l3.87-3.86a1.49 1.49 0 0 1 2.12 0l25 24.91a4.24 4.24 0 0 1 0 6 4.2 4.2 0 0 1-2.98 1.23Zm-24.82-27.22 23.92 23.86a1.27 1.27 0 0 0 1.74 0 1.24 1.24 0 0 0 .266-1.34 1.23 1.23 0 0 0-.267-.4l-24-23.86-1.66 1.74Z" fill="#F2F2F2"/></svg>