<?xml version="1.0" encoding="utf-8"?>
<!-- Generator: Adobe Illustrator 27.8.1, SVG Export Plug-In . SVG Version: 6.00 Build 0)  -->
<svg version="1.1" id="Layer_1" xmlns="http://www.w3.org/2000/svg" xmlns:xlink="http://www.w3.org/1999/xlink" x="0px" y="0px"
	 viewBox="0 0 65 64" style="enable-background:new 0 0 65 64;" xml:space="preserve">
<style type="text/css">
	.st0{fill:#F2F2F2;}
</style>
<g>
	<path class="st0" d="M56,39.1c-1.1,0-2.2-0.7-2.6-1.8l-6.9-16.8c-0.6-1.4,0.1-3.1,1.5-3.7l0.1,0l9.9-3.6c0.7-0.3,1.5-0.2,2.2,0.1
		c0.7,0.3,1.2,0.9,1.5,1.6c0.1,0.3,0.2,0.7,0.2,1l-0.3,19.3c0,1.2-0.7,2.2-1.8,2.6l-2.7,1C56.7,39.1,56.4,39.1,56,39.1z M56.2,36.2
		L56.2,36.2L56.2,36.2z M49.3,19.6l6.8,16.5l2.4-0.9l0.3-19L49.3,19.6z M8,39.1c-0.3,0-0.7-0.1-1-0.2l-2.7-1
		c-1.1-0.4-1.8-1.4-1.8-2.6L2.2,16c0-0.3,0.1-0.7,0.2-1c0.3-0.7,0.8-1.3,1.5-1.6C4.5,13,5.3,13,6,13.2l10,3.6
		c1.5,0.6,2.2,2.3,1.6,3.7l-6.9,16.8C10.2,38.5,9.1,39.1,8,39.1z M9.2,36.8L9.2,36.8L9.2,36.8z M7.8,36.2L7.8,36.2L7.8,36.2
		L7.8,36.2z M5.5,35.1l2.4,0.9l6.8-16.5l-9.5-3.5L5.5,35.1z"/>
</g>
<g>
	<path class="st0" d="M34.6,55.2c-0.9,0-1.9-0.3-2.9-0.8l-2.4-1.5l-16-13.2l-3.6-2.5c-0.7-0.5-0.8-1.4-0.4-2.1
		c0.5-0.7,1.4-0.8,2.1-0.4l3.7,2.6l16,13.2l2.1,1.3c0.3,0.1,1.4,0.7,1.9,0.2c0.2-0.2,0.3-0.5,0.3-0.8c0-0.3-0.1-0.5-0.3-0.7
		l-3.4-2.5c-0.7-0.5-0.8-1.4-0.3-2.1c0.5-0.7,1.4-0.8,2.1-0.3l3.4,2.6c0.1,0,0.1,0.1,0.2,0.2c0.6,0.6,2.1,1,2.5,0.8
		c0.4-0.4,0.4-1.1,0-1.5l-6.1-4.8c-0.7-0.5-0.8-1.5-0.3-2.1s1.5-0.8,2.1-0.3l6.2,4.8c0.1,0,0.1,0.1,0.2,0.1c0,0,0,0,0,0
		c0.3,0.3,0.8,0.5,1.3,0.6c0.5,0.1,0.7,0,0.8-0.1c0.3-0.3,0.2-1.3-0.3-1.9l-8.2-7c-0.6-0.5-0.7-1.5-0.2-2.1c0.5-0.6,1.5-0.7,2.1-0.2
		l8.3,7c0,0,0,0,0.1,0.1c0,0,0,0,0.1,0c0.4,0.4,1.1,0.4,1.5,0c0.4-0.4,0.5-1.1,0-1.6l-8.8-8.6c-0.8-0.8-2.1-1.1-3.2-0.6l-4.6,1.9
		c-2.5,1-5.3,0-6.5-2.3c-1.4-2.5-0.5-5.7,2-7.1l1.3-0.7c-0.9-0.1-1.9,0-2.8,0.5c-2.8,1.5-7.1,0.8-9.1,0.1c-0.8-0.3-1.2-1.1-1-1.9
		c0.3-0.8,1.1-1.2,1.9-1c1.7,0.5,5,1,6.8,0.1c2.6-1.4,5.3-0.8,6.3-0.4c0.4,0.1,1,0.4,1.5,0.7c2.7-1.2,5.7-1.4,8.9-0.5
		c2.7,0.8,4.9,0.8,6.6,0.2c0.8-0.3,1.6,0.1,1.9,0.9c0.3,0.8-0.1,1.6-0.9,1.9c-2.4,0.9-5.2,0.8-8.5-0.1c-2.7-0.8-5.3-0.5-7.5,0.7
		c0,0-0.1,0-0.1,0L27.7,26c-1.1,0.6-1.5,2-0.9,3c0.5,1,1.7,1.4,2.8,1l4.6-1.9c2.2-0.9,4.7-0.4,6.4,1.3l8.3,8.1l3.8-1.9
		c0.7-0.4,1.6-0.1,2,0.7c0.4,0.7,0.1,1.6-0.7,2l-3.5,1.8c0.3,1.4-0.1,2.9-1.2,3.9c-0.6,0.6-1.4,1-2.2,1.1c0,1.1-0.3,2.1-1.1,2.9
		c-0.7,0.7-1.9,1.1-3.1,1c-0.1,0.8-0.5,1.6-1.1,2.2c-0.8,0.8-2,1.1-3.5,0.8c-0.2,0.8-0.5,1.5-1.1,2.1C36.6,54.8,35.7,55.2,34.6,55.2
		z"/>
</g>
</svg>
